<svg width="77" height="34" viewBox="0 0 77 34" fill="none" xmlns="http://www.w3.org/2000/svg">
<g clip-path="url(#clip0_2201_251)">
<path d="M15.8707 10.4152C16.6116 10.1844 17.4018 10.0612 18.2217 10.0612C21.8108 10.0612 24.8072 12.4434 25.4921 15.6104L30.5794 14.6409C29.4137 9.26102 24.3232 5.21069 18.2217 5.21069C16.8223 5.21069 15.4822 5.42306 14.2244 5.81701L15.8707 10.4152Z" fill="#FFCB05"/>
<path d="M9.86798 25.8224L13.3089 22.1876C11.7745 20.9164 10.8064 19.0605 10.8064 16.9923C10.8064 14.9271 11.7745 13.0712 13.3089 11.8032L9.86798 8.16528C7.26014 10.3259 5.61377 13.4806 5.61377 16.9923C5.61377 20.5071 7.26014 23.6618 9.86798 25.8224" fill="#00A4E0"/>
<path d="M25.4921 18.3834C24.8039 21.5474 21.8108 23.9265 18.225 23.9265C17.4019 23.9265 16.6083 23.8034 15.8707 23.5694L14.2244 28.1738C15.4822 28.5647 16.8256 28.777 18.225 28.777C24.3199 28.777 29.4071 24.7328 30.5794 19.3591L25.4921 18.3834Z" fill="#EF4123"/>
<path d="M35.0278 22.3383C34.8599 22.086 34.636 21.6828 34.4977 21.3842C33.691 19.6361 33.6548 17.8264 34.3331 16.0905C35.0805 14.1854 36.5096 12.7296 38.3568 11.9848C40.6782 11.0522 43.2432 11.2338 45.4691 12.468C46.8817 13.2251 47.8827 14.3946 48.6433 16.0505C48.7388 16.2628 48.8244 16.4875 48.91 16.6814L35.0278 22.3383ZM39.664 14.7948C38.0143 15.4565 37.1648 16.903 37.3426 18.5958L44.3232 15.7858C43.1214 14.4685 41.5606 14.0315 39.664 14.7948V14.7948ZM45.1925 20.9072C45.1892 20.9072 45.1892 20.9103 45.1892 20.9103L45.0443 20.8179C44.6261 21.4489 43.9775 21.9629 43.1576 22.2953C41.5968 22.9293 40.1513 22.7662 39.1108 21.9136L39.0153 22.049C39.0153 22.049 39.0153 22.046 39.012 22.046L37.2406 24.5236C37.6818 24.8098 38.1526 25.0499 38.6465 25.2437C40.6024 26.004 42.6044 25.967 44.5768 25.1668C46.0025 24.5882 47.122 23.7079 47.886 22.5907L45.1925 20.9072ZM53.7602 8.3407V22.1106L56.0519 22.9785L54.7513 25.8162L52.2225 24.8313C51.6561 24.6005 51.2676 24.2496 50.9778 23.8526C50.6979 23.4494 50.4905 22.8923 50.4905 22.1475V8.3407H53.7602ZM59.6937 18.605C59.6937 17.4324 60.2502 16.3798 61.126 15.6658L58.775 13.2159C57.1813 14.5331 56.1771 16.4567 56.1771 18.5989C56.1738 20.7441 57.178 22.6707 58.7684 23.988L61.1161 21.5381C60.2436 20.821 59.6937 19.7746 59.6937 18.605V18.605ZM63.8689 22.5107C63.4079 22.5107 62.9601 22.4368 62.5452 22.3076L61.4224 25.4253C62.1896 25.6654 63.0095 25.7977 63.8656 25.7977C67.5864 25.8008 70.6914 23.3325 71.4125 20.0546L67.9617 19.396C67.5699 21.178 65.8873 22.5138 63.8689 22.5107V22.5107ZM63.8787 11.4123C63.0259 11.4123 62.206 11.5416 61.4388 11.7786L62.5518 14.8994C62.97 14.7701 63.4145 14.6993 63.8755 14.6993C65.8972 14.7024 67.5831 16.0443 67.965 17.8294L71.4158 17.1769C70.7079 13.893 67.6028 11.4154 63.8787 11.4123V11.4123Z" fill="white"/>
</g>
<defs>
<clipPath id="clip0_2201_251">
<rect width="77" height="34" fill="white"/>
</clipPath>
</defs>
</svg>
